<svg width="375" height="7203" viewBox="0 0 375 7203" fill="none" xmlns="http://www.w3.org/2000/svg">
<g clip-path="url(#clip0_645_31)">
<rect width="375" height="7203" fill="black"/>
<path d="M145.545 6489.01C142.627 6494.22 141.318 6502.31 141.29 6512.7C141.261 6523.11 142.523 6535.99 144.868 6550.92C149.56 6580.77 158.614 6618.97 170.513 6662.33C194.311 6749.06 229.532 6856.62 264.133 6959.74C272.81 6985.59 281.448 7011.17 289.857 7036.08C314.989 7110.5 338.081 7178.88 354.081 7230.63C364.764 7265.19 372.257 7292.24 375.098 7308.7C375.808 7312.82 376.22 7316.23 376.325 7318.91C376.431 7321.64 376.214 7323.45 375.777 7324.5C375.568 7325 375.323 7325.29 375.06 7325.45C374.796 7325.61 374.443 7325.68 373.954 7325.57C372.936 7325.36 371.481 7324.44 369.522 7322.55C365.638 7318.79 360.361 7311.62 353.866 7301.35C347.385 7291.11 339.74 7277.86 331.122 7262.02C313.888 7230.35 292.794 7188.36 269.404 7139.46C222.625 7041.64 166.687 6916.17 114.124 6790.15C61.5602 6664.12 12.3828 6537.57 -20.8797 6437.59C-37.5126 6387.6 -50.1541 6344.29 -57.2528 6311.02C-60.8028 6294.39 -62.9572 6280.31 -63.5406 6269.18C-64.1265 6258.01 -63.114 6250.03 -60.5134 6245.39C-57.871 6240.67 -53.4404 6237.01 -47.3305 6234.37C-41.2248 6231.74 -33.5026 6230.15 -24.3639 6229.51C-6.08616 6228.24 17.727 6230.8 45.3129 6236.31C100.476 6247.31 170.567 6270.04 241.292 6297.18C312.013 6324.33 383.339 6355.86 440.963 6384.47C469.776 6398.77 495.156 6412.34 515.317 6424.25C535.503 6436.17 550.389 6446.4 558.267 6454.02C560.226 6455.91 561.672 6457.61 562.658 6459.13C563.65 6460.65 564.131 6461.91 564.259 6462.94C564.49 6464.81 563.586 6466.58 560.761 6468.14C557.982 6469.68 553.683 6470.79 548.012 6471.52C542.359 6472.25 535.408 6472.59 527.367 6472.62C501.368 6472.73 464.161 6469.64 422.981 6466.21C413.191 6465.4 403.176 6464.56 393.034 6463.75C340.262 6459.52 284.068 6455.83 238.288 6458.16C215.4 6459.32 195.079 6461.98 179.074 6466.85C163.112 6471.7 151.263 6478.8 145.545 6489.01Z" stroke="white" stroke-width="2"/>
<path d="M243.237 462.863C233.511 459.892 223.841 456.866 214.277 453.786C159.023 435.993 107.412 416.424 69.6299 395.157C50.7375 384.523 35.3538 373.492 24.7044 362.085C14.0554 350.678 8.21185 338.976 8.21185 326.972C8.21185 273.613 28.993 234.57 61.8055 205.964C94.6546 177.326 139.605 159.116 187.954 147.58C273.969 127.057 370.417 127.727 427.849 128.126C434.813 128.174 441.204 128.219 446.932 128.221C462.286 144.607 460.801 169.146 446.915 200.292C432.967 231.576 406.684 269.1 373.408 310.756C341.705 350.444 303.708 393.817 264.091 439.04C262.139 441.267 260.184 443.499 258.225 445.736C253.248 451.419 248.248 457.129 243.237 462.863ZM135.503 593.496C169.844 550.424 207.177 507.169 243.891 465.154C289.99 479.213 337.248 492.055 380.017 503.639L383.617 504.614C434.316 518.345 478.369 530.276 506.297 540.353C804.051 647.792 1003.58 741.981 1117.9 820.438C1175.08 859.678 1210.83 894.908 1226.95 925.797C1235 941.224 1238.13 955.521 1236.64 968.676C1235.15 981.824 1229.03 993.932 1218.41 1004.97C1197.11 1027.09 1157.79 1044.84 1101.84 1057.78C1045.92 1070.71 973.546 1078.81 886.316 1081.75C711.864 1087.63 478.112 1072.89 198 1035.05C119.341 1021.95 66.4071 1000.07 33.6405 971.644C0.922263 943.264 -11.7601 908.303 -9.80595 868.794C-7.84892 829.227 8.79338 785.071 34.8237 738.433C60.8469 691.809 96.2062 642.785 135.503 593.496Z" stroke="white" stroke-width="2"/>
<path d="M1526.04 1911.45C1493.85 1932.1 1459.48 1952.98 1423.34 1973.95C1436.31 1859.29 1450.58 1747.6 1469.07 1661.55C1479.86 1611.35 1492.07 1569.95 1506.26 1541.79C1513.36 1527.7 1520.91 1517 1528.97 1510.16C1537.01 1503.33 1545.52 1500.37 1554.61 1501.66C1617.48 1510.55 1666.71 1522.67 1703.75 1537.54C1740.8 1552.42 1765.57 1570.02 1779.63 1589.83C1793.67 1609.6 1797.11 1631.65 1791.32 1655.63C1785.52 1679.65 1770.46 1705.61 1747.45 1733.08C1701.44 1788.01 1623.86 1848.67 1526.04 1911.45ZM1184.47 2104.08C1268.18 2062.28 1348.09 2019.8 1420.9 1977.67C1418.9 1995.46 1416.92 2013.3 1414.97 2031.12C1413.27 2046.56 1411.6 2061.97 1409.93 2077.31C1397.07 2195.38 1384.67 2309.25 1369.51 2393.99C1360.94 2441.88 1351.51 2480.38 1340.65 2505.06C1335.21 2517.41 1329.47 2526.17 1323.4 2530.95C1320.38 2533.33 1317.31 2534.7 1314.18 2535.07C1311.04 2535.43 1307.76 2534.8 1304.3 2533.05C1293.65 2527.64 1260.07 2505.07 1210.12 2469.51C1160.2 2433.98 1094.01 2385.54 1018.19 2328.47C980.648 2300.21 940.748 2269.84 899.292 2237.87C996.042 2195.02 1092.55 2149.96 1184.47 2104.08ZM499.447 1918.11C630.688 2029.49 770.06 2140.68 895.409 2237.4C726.404 2312.15 556.806 2380.11 409.843 2433.88C293.86 2476.31 191.989 2509.91 115.644 2531.03C77.4678 2541.6 45.6963 2549.04 21.7433 2552.92C9.765 2554.85 -0.232243 2555.89 -8.08438 2555.99C-15.9813 2556.09 -21.5517 2555.23 -24.7965 2553.5C-31.8593 2549.74 -36.0049 2541.44 -37.4345 2528.72C-38.861 2516.03 -37.548 2499.21 -33.958 2478.83C-26.7802 2438.09 -10.5547 2383.41 10.6614 2319.77C27.2276 2270.08 46.8374 2214.91 67.536 2156.69C99.8222 2065.87 134.758 1967.6 164.925 1871C186.835 1800.84 206.25 1731.5 220.325 1666.47C301.753 1746.11 398.189 1832.18 499.447 1918.11ZM240.412 1448.35C245.225 1508.52 236.334 1582.11 219.133 1662.5C160.466 1604.99 109.729 1550.89 70.7781 1502.69C47.4487 1473.83 28.3623 1447.09 14.336 1423.02C0.303612 1398.94 -8.63216 1377.58 -11.7156 1359.45C-14.7962 1341.34 -12.0235 1326.55 -2.7729 1315.45C6.49977 1304.32 22.4329 1296.7 46.074 1293.29C112.123 1283.76 158.458 1295.32 189.377 1322.72C220.318 1350.13 236.032 1393.6 240.412 1448.35Z" stroke="white" stroke-width="2"/>
<path d="M121.786 5572.12C154.991 5544.17 188.398 5519.9 221.16 5499.51C219.742 5507.63 218.504 5515.91 217.423 5524.31C210.421 5578.77 209.977 5638.86 209.536 5698.66C209.399 5717.19 209.262 5735.69 208.93 5753.99C207.527 5831.46 202.634 5905.28 179.649 5962.7C168.17 5991.38 152.183 6015.96 129.855 6034.85C107.526 6053.75 78.8033 6067.02 41.8092 6072.98C-9.53006 6078.1 -41.5896 6059.09 -58.0902 6025.51C-74.6257 5991.86 -75.6676 5943.34 -64.4541 5889.1C-42.0288 5780.62 29.2677 5650.01 121.786 5572.12ZM223.624 5495.61C234.402 5436.89 254.977 5386.79 294.647 5353.4C340.769 5314.57 382.857 5309.57 419.287 5322.23C455.759 5334.9 486.616 5365.29 510.142 5397.34C533.664 5429.39 549.8 5463.02 556.85 5482.05C558.613 5486.81 559.795 5490.62 560.385 5493.24C560.629 5494.33 560.76 5495.16 560.801 5495.75C560.705 5495.66 560.597 5495.55 560.478 5495.42C559.908 5494.79 559.163 5493.77 558.234 5492.31C556.382 5489.38 553.872 5484.77 550.676 5478.22C524.785 5425.13 463.53 5409.27 385.885 5426C336.913 5436.56 281.292 5460.1 223.624 5495.61Z" stroke="white" stroke-width="2"/>
<path d="M1149.56 3302.14C1174.29 3414.55 1198.11 3518.45 1222.42 3603.55C1131.31 3559.88 1014.22 3513.78 887.953 3464.07C878.288 3460.27 868.57 3456.44 858.806 3452.59C765.159 3415.69 667.257 3376.8 571.732 3335.43C656.208 3165.86 734.511 2993.99 791.347 2838.27C831.364 2728.63 860.758 2626.95 874.161 2539.69C886.569 2458.91 885.298 2390.34 865.94 2339.25C928.654 2444.77 980.395 2598.03 1025.59 2766.59C1064.32 2911.07 1098.22 3066.7 1130.09 3213.02C1136.66 3243.18 1143.14 3272.95 1149.56 3302.14ZM341.688 3229.07C413.38 3266.79 490.422 3302.58 569.099 3336.69C535.007 3405.07 499.919 3473.06 464.838 3539.46C397.237 3667.42 329.671 3789.44 269.318 3896.85C279.147 3843.15 283.559 3789.03 283.551 3735.19C283.525 3545.03 228.373 3358.44 162.209 3205.99C141.006 3157.14 118.666 3111.77 96.6396 3070.91C163.767 3127.35 248.209 3179.87 341.688 3229.07ZM191.89 4037.64C214.647 3997.47 239.419 3953.73 265.608 3907.16C239.661 4039.02 180.469 4168.11 73.0622 4284.08C66.9838 4290.59 62.2703 4295.16 58.8246 4297.91C57.0982 4299.29 55.7267 4300.18 54.6838 4300.64C53.597 4301.13 53.0645 4301.05 52.8443 4300.91C52.7111 4300.82 52.4939 4300.55 52.5225 4299.52C52.5511 4298.5 52.8265 4297.01 53.4018 4295.02C54.5463 4291.07 56.7714 4285.47 60.0269 4278.3C73.0425 4249.65 102.087 4196.79 141.874 4126.11C157.081 4099.1 173.852 4069.49 191.89 4037.64ZM-26.6786 2882.92C2.17448 2918.02 45.1076 2980.67 89.8408 3062.38C46.2271 3024.75 10.426 2985.41 -15.1563 2944.19C-31.5751 2917.74 -43.1728 2897.25 -50.6455 2882.24C-54.3825 2874.73 -57.0783 2868.61 -58.8288 2863.82C-60.5975 2858.97 -61.3438 2855.62 -61.3157 2853.6C-61.3019 2852.61 -61.1057 2852.14 -60.9217 2851.91C-60.7416 2851.69 -60.391 2851.48 -59.6896 2851.54C-58.2464 2851.65 -55.9592 2852.85 -52.8412 2855.29C-46.668 2860.14 -37.7227 2869.49 -26.6786 2882.92ZM1225.4 3607.41C1248.31 3618.46 1269.53 3629.35 1288.79 3640.11C1339.84 3668.61 1376.97 3696.08 1395.28 3722.83C1404.42 3736.19 1408.77 3749.24 1407.96 3762.04C1407.14 3774.82 1401.15 3787.66 1389.07 3800.6C1376.99 3813.55 1365.44 3820.75 1354.35 3822.85C1343.27 3824.96 1332.56 3822 1322.14 3814.47C1301.23 3799.36 1281.51 3765.89 1262.41 3718.29C1249.83 3686.95 1237.55 3649.56 1225.4 3607.41Z" stroke="white" stroke-width="2"/>
<path d="M-12.0403 4705.46C69.7241 4700.47 196.099 4681.8 385.373 4639.35L385.389 4639.35L385.404 4639.35C524.449 4603.46 624.308 4577.71 692.031 4562.27C725.895 4554.54 751.696 4549.4 770.33 4546.86C779.649 4545.59 787.148 4544.97 792.953 4545C798.793 4545.03 802.787 4545.71 805.191 4546.94C806.373 4547.54 807.118 4548.25 807.537 4549.02C807.954 4549.79 808.104 4550.72 807.927 4551.87C807.564 4554.24 805.847 4557.38 802.651 4561.32C796.293 4569.17 784.539 4579.69 768.181 4592.94C750.062 4607.62 726.407 4625.56 698.384 4646.82C675.834 4663.92 650.456 4683.17 622.861 4704.58C507.923 4782.78 450.776 4854.91 427.609 4919.2C404.427 4983.52 415.316 5039.86 436.121 5086.32C451.65 5120.99 472.753 5150.25 489.294 5173.18C494.881 5180.93 499.948 5187.96 504.104 5194.22C508.23 5200.45 511.442 5205.9 513.404 5210.57C515.376 5215.27 516.015 5219.02 515.218 5221.93C514.443 5224.75 512.242 5227.01 507.913 5228.58C503.554 5230.16 497.163 5231 488.294 5231C452.97 5231 404.031 5209.94 350.37 5175.21C296.76 5140.52 238.602 5092.3 184.884 5038.21C131.166 4984.13 81.9147 4924.22 46.0998 4866.15C10.2844 4808.08 -12.0193 4751.98 -12.0403 4705.46ZM-32.7015 4657.62C-21.7932 4666.76 -14.4362 4681.41 -14.0558 4703.57C-26.6562 4704.32 -38.1767 4704.73 -48.6867 4704.85C-87.9639 4705.31 -113.025 4701.7 -127.572 4696.08C-134.847 4693.28 -139.384 4690.01 -141.796 4686.61C-144.172 4683.25 -144.541 4679.69 -143.317 4676.06C-142.076 4672.37 -139.178 4668.58 -134.942 4664.93C-130.716 4661.29 -125.218 4657.86 -118.881 4654.89C-106.204 4648.94 -90.2715 4644.88 -74.681 4644.7C-59.0847 4644.51 -43.9357 4648.2 -32.7015 4657.62Z" stroke="white" stroke-width="2"/>
</g>
<defs>
<clipPath id="clip0_645_31">
<rect width="375" height="7203" fill="white"/>
</clipPath>
</defs>
</svg>
