<svg width="1440" height="1024" viewBox="0 0 1440 1024" fill="none" xmlns="http://www.w3.org/2000/svg">
<g clip-path="url(#clip0)">
<rect width="1440" height="1024" fill="#28738A"/>
<path d="M283.323 243.464C270.351 240.449 257.451 237.378 244.697 234.252C172.087 216.456 104.207 196.87 54.4881 175.569C29.6261 164.918 9.33421 153.849 -4.73415 142.38C-18.8134 130.901 -26.5723 119.095 -26.5723 106.972C-26.5723 53.5199 0.78627 14.3467 44.0686 -14.373C87.3704 -43.1056 146.583 -61.3516 210.18 -72.901C323.31 -93.4455 450.149 -92.7738 525.596 -92.3742C534.901 -92.3249 543.425 -92.2798 551.045 -92.2791C561.42 -83.9617 566.059 -73.628 565.867 -61.5025C565.675 -49.2911 560.58 -35.2253 551.4 -19.5535C533.042 11.7886 498.464 49.3555 454.737 91.0182C413.073 130.716 363.14 174.099 311.092 219.318C308.527 221.547 305.957 223.78 303.382 226.017C296.721 231.806 290.03 237.623 283.323 243.464ZM140.801 373.235C186.045 330.043 235.238 286.67 283.594 244.554C344.324 258.66 406.612 271.543 462.981 283.164L467.747 284.147C534.327 297.871 592.236 309.808 628.965 319.895C1020.19 427.338 1282.42 521.551 1432.72 600.057C1507.88 639.318 1554.97 674.614 1576.23 705.617C1586.85 721.107 1591 735.478 1589.02 748.715C1587.05 761.952 1578.96 774.154 1564.9 785.273C1536.75 807.529 1484.88 825.313 1411.31 838.261C1337.77 851.205 1242.61 859.305 1127.97 862.248C898.693 868.133 591.517 853.39 223.455 815.545C120.021 802.433 50.285 780.517 7.06556 751.982C-36.1204 723.471 -52.8172 688.366 -50.2445 648.777C-47.6681 609.131 -25.7622 564.912 8.46152 518.242C42.677 471.583 89.1596 422.534 140.801 373.235Z" stroke="#B6B4CC" stroke-opacity="0.3"/>
<path d="M1580 132.5C1580 244.338 1423.98 335 1231.51 335C1039.05 335 780 319.748 780 207.91C780 96.0725 1039.05 -70 1231.51 -70C1423.98 -70 1580 20.6623 1580 132.5Z" fill="#4F5588" fill-opacity="0.26"/>
<path d="M109.398 861.042C1581.7 1012.43 2080.01 794.193 515.098 364.413C364.605 323.082 -141.072 250.757 -141.072 151.972C-141.072 -62.6663 298.598 -47.7791 437.22 -47.7791C606.656 87.1201 -718.313 756.12 109.398 861.042Z" fill="#4F5588" fill-opacity="0.26"/>
<path d="M1558.5 77.5C1558.5 133.166 1519.67 183.656 1456.68 220.257C1393.7 256.85 1306.67 279.5 1210.51 279.5C1114.28 279.5 1001.45 275.686 912.679 257.904C868.292 249.012 829.966 236.635 802.749 219.526C775.542 202.423 759.5 180.637 759.5 152.91C759.5 125.131 775.596 93.8976 802.86 62.6338C830.112 31.384 868.466 0.170479 912.846 -27.56C1001.62 -83.0265 1114.4 -124.5 1210.51 -124.5C1306.67 -124.5 1393.7 -101.85 1456.68 -65.2568C1519.67 -28.6559 1558.5 21.8338 1558.5 77.5Z" stroke="#B6B4CC" stroke-opacity="0.3"/>
</g>
<defs>
<clipPath id="clip0">
<rect width="1440" height="1024" fill="white"/>
</clipPath>
</defs>
</svg>
