<svg width="286" height="72" viewBox="0 0 286 72" fill="none" xmlns="http://www.w3.org/2000/svg">
<path d="M12.894 42.378C10.934 42.378 9.212 42 7.728 41.244C6.244 40.46 5.082 39.368 4.242 37.968C3.43 36.54 3.024 34.902 3.024 33.054V21.504C3.024 19.684 3.43 18.074 4.242 16.674C5.082 15.274 6.244 14.196 7.728 13.44C9.212 12.656 10.934 12.264 12.894 12.264C14.854 12.264 16.576 12.642 18.06 13.398C19.544 14.154 20.692 15.218 21.504 16.59C22.344 17.962 22.764 19.544 22.764 21.336C22.764 21.476 22.722 21.588 22.638 21.672C22.554 21.756 22.456 21.798 22.344 21.798L20.202 21.924C19.922 21.924 19.782 21.798 19.782 21.546V21.42C19.782 19.432 19.152 17.85 17.892 16.674C16.632 15.47 14.966 14.868 12.894 14.868C10.822 14.868 9.156 15.47 7.896 16.674C6.636 17.878 6.006 19.46 6.006 21.42V33.18C6.006 35.14 6.636 36.722 7.896 37.926C9.156 39.13 10.822 39.732 12.894 39.732C14.966 39.732 16.632 39.144 17.892 37.968C19.152 36.764 19.782 35.168 19.782 33.18V33.096C19.782 32.844 19.922 32.718 20.202 32.718L22.344 32.844C22.624 32.844 22.764 32.97 22.764 33.222C22.764 35.042 22.344 36.652 21.504 38.052C20.692 39.424 19.544 40.488 18.06 41.244C16.576 42 14.854 42.378 12.894 42.378ZM55.2979 42C55.0459 42 54.8779 41.888 54.7939 41.664L53.1139 36.372C53.0859 36.288 53.0299 36.246 52.9459 36.246H40.3879C40.3039 36.246 40.2479 36.288 40.2199 36.372L38.5399 41.664C38.4559 41.888 38.2879 42 38.0359 42H35.7679C35.4599 42 35.3479 41.846 35.4319 41.538L44.7139 12.936C44.7979 12.712 44.9659 12.6 45.2179 12.6H48.0739C48.3259 12.6 48.4939 12.712 48.5779 12.936L57.9019 41.538L57.9439 41.706C57.9439 41.902 57.8179 42 57.5659 42H55.2979ZM41.0599 33.6C41.0319 33.656 41.0319 33.712 41.0599 33.768C41.1159 33.796 41.1719 33.81 41.2279 33.81H52.0639C52.1199 33.81 52.1619 33.796 52.1899 33.768C52.2459 33.712 52.2599 33.656 52.2319 33.6L46.7719 16.464C46.7439 16.408 46.7019 16.38 46.6459 16.38C46.5899 16.38 46.5479 16.408 46.5199 16.464L41.0599 33.6ZM72.2078 42C71.9278 42 71.7878 41.86 71.7878 41.58V13.02C71.7878 12.74 71.9278 12.6 72.2078 12.6H74.3498C74.6298 12.6 74.7698 12.74 74.7698 13.02V39.228C74.7698 39.34 74.8258 39.396 74.9378 39.396H89.7638C90.0438 39.396 90.1838 39.536 90.1838 39.816V41.58C90.1838 41.86 90.0438 42 89.7638 42H72.2078ZM121.497 42C121.245 42 121.077 41.888 120.993 41.664L119.313 36.372C119.285 36.288 119.229 36.246 119.145 36.246H106.587C106.503 36.246 106.447 36.288 106.419 36.372L104.739 41.664C104.655 41.888 104.487 42 104.235 42H101.967C101.659 42 101.547 41.846 101.631 41.538L110.913 12.936C110.997 12.712 111.165 12.6 111.417 12.6H114.273C114.525 12.6 114.693 12.712 114.777 12.936L124.101 41.538L124.143 41.706C124.143 41.902 124.017 42 123.765 42H121.497ZM107.259 33.6C107.231 33.656 107.231 33.712 107.259 33.768C107.315 33.796 107.371 33.81 107.427 33.81H118.263C118.319 33.81 118.361 33.796 118.389 33.768C118.445 33.712 118.459 33.656 118.431 33.6L112.971 16.464C112.943 16.408 112.901 16.38 112.845 16.38C112.789 16.38 112.747 16.408 112.719 16.464L107.259 33.6ZM189.05 42C188.798 42 188.63 41.888 188.546 41.664L186.866 36.372C186.838 36.288 186.782 36.246 186.698 36.246H174.14C174.056 36.246 174 36.288 173.972 36.372L172.292 41.664C172.208 41.888 172.04 42 171.788 42H169.52C169.212 42 169.1 41.846 169.184 41.538L178.466 12.936C178.55 12.712 178.718 12.6 178.97 12.6H181.826C182.078 12.6 182.246 12.712 182.33 12.936L191.654 41.538L191.696 41.706C191.696 41.902 191.57 42 191.318 42H189.05ZM174.812 33.6C174.784 33.656 174.784 33.712 174.812 33.768C174.868 33.796 174.924 33.81 174.98 33.81H185.816C185.872 33.81 185.914 33.796 185.942 33.768C185.998 33.712 186.012 33.656 185.984 33.6L180.524 16.464C180.496 16.408 180.454 16.38 180.398 16.38C180.342 16.38 180.3 16.408 180.272 16.464L174.812 33.6ZM223.054 13.02C223.054 12.74 223.194 12.6 223.474 12.6H225.616C225.896 12.6 226.036 12.74 226.036 13.02V41.58C226.036 41.86 225.896 42 225.616 42H223.516C223.32 42 223.152 41.902 223.012 41.706L208.69 18.396C208.662 18.312 208.62 18.284 208.564 18.312C208.508 18.312 208.48 18.354 208.48 18.438L208.522 41.58C208.522 41.86 208.382 42 208.102 42H205.96C205.68 42 205.54 41.86 205.54 41.58V13.02C205.54 12.74 205.68 12.6 205.96 12.6H208.06C208.256 12.6 208.424 12.698 208.564 12.894L222.886 36.204C222.914 36.288 222.956 36.33 223.012 36.33C223.068 36.302 223.096 36.246 223.096 36.162L223.054 13.02ZM250.815 42.336C247.651 42.336 245.145 41.622 243.297 40.194C241.477 38.766 240.567 36.862 240.567 34.482V33.18C240.567 32.9 240.707 32.76 240.987 32.76H243.045C243.325 32.76 243.465 32.9 243.465 33.18V34.314C243.465 35.938 244.137 37.254 245.481 38.262C246.825 39.242 248.687 39.732 251.067 39.732C253.223 39.732 254.861 39.284 255.981 38.388C257.101 37.464 257.661 36.246 257.661 34.734C257.661 33.754 257.395 32.914 256.863 32.214C256.359 31.514 255.561 30.856 254.469 30.24C253.405 29.624 251.893 28.91 249.933 28.098C247.833 27.258 246.195 26.53 245.019 25.914C243.871 25.27 242.933 24.458 242.205 23.478C241.505 22.47 241.155 21.21 241.155 19.698C241.155 17.346 241.967 15.526 243.591 14.238C245.243 12.922 247.497 12.264 250.353 12.264C253.461 12.264 255.911 12.992 257.703 14.448C259.495 15.904 260.391 17.836 260.391 20.244V21.168C260.391 21.448 260.251 21.588 259.971 21.588H257.871C257.591 21.588 257.451 21.448 257.451 21.168V20.412C257.451 18.788 256.807 17.458 255.519 16.422C254.259 15.386 252.495 14.868 250.227 14.868C248.239 14.868 246.713 15.274 245.649 16.086C244.585 16.898 244.053 18.074 244.053 19.614C244.053 20.622 244.305 21.462 244.809 22.134C245.341 22.778 246.083 23.352 247.035 23.856C248.015 24.332 249.513 24.962 251.529 25.746C253.573 26.586 255.211 27.37 256.443 28.098C257.703 28.826 258.711 29.722 259.467 30.786C260.251 31.822 260.643 33.096 260.643 34.608C260.643 36.96 259.775 38.836 258.039 40.236C256.303 41.636 253.895 42.336 250.815 42.336Z" fill="#EB4365"/>
<rect x="135" y="12.0552" width="24.4706" height="1.76146" rx="0.880729" fill="#EB4365"/>
<rect width="18.6138" height="1.81683" rx="0.908413" transform="matrix(0.519472 0.854487 -0.872505 0.488605 143.327 18.0352)" fill="#EB4365"/>
<rect width="15.3181" height="1.81422" rx="0.907108" transform="matrix(0.553944 -0.832554 0.852605 0.522557 150.294 24.8084)" fill="#EB4365"/>
<rect x="161" y="42" width="24.4706" height="1.76146" rx="0.880729" transform="rotate(180 161 42)" fill="#EB4365"/>
<rect width="15.3135" height="1.81474" rx="0.907372" transform="matrix(-0.547144 0.837039 -0.856688 -0.515835 145.545 29.138)" fill="#EB4365"/>
<path d="M135.918 40.8257C136.006 40.4032 136.388 40.1078 136.819 40.1296L138.119 40.1952C138.599 40.2195 138.977 40.6161 138.977 41.0971V41.0971C138.977 41.5957 138.572 42 138.074 42H136.825C136.211 42 135.763 41.4199 135.918 40.8257V40.8257V40.8257Z" fill="#EB4365"/>
<path d="M159.878 13.3921C159.767 13.7399 159.442 13.9736 159.077 13.9674L157.658 13.9437C157.167 13.9355 156.768 13.5439 156.75 13.0533V13.0533C156.732 12.5591 157.107 12.1397 157.6 12.1032L158.247 12.0552L158.902 12.0759C159.426 12.0925 159.856 12.495 159.908 13.016L159.913 13.0595C159.924 13.1717 159.912 13.2849 159.878 13.3921V13.3921Z" fill="#EB4365"/>
</svg>
