<svg width="1440" height="4841" viewBox="0 0 1440 4841" fill="none" xmlns="http://www.w3.org/2000/svg">
<g clip-path="url(#clip0_608_30)">
<rect width="1440" height="4841" fill="black"/>
<path d="M1558 77.5C1558 132.914 1519.34 183.268 1456.43 219.824C1393.54 256.366 1306.6 279 1210.51 279C1114.29 279 1001.49 275.186 912.778 257.414C868.412 248.526 830.156 236.164 803.015 219.103C775.894 202.054 760 180.405 760 152.91C760 125.312 776.001 94.1935 803.237 62.9624C830.448 31.7594 868.76 0.576088 913.111 -27.136C1001.83 -82.571 1114.52 -124 1210.51 -124C1306.6 -124 1393.54 -101.366 1456.43 -64.8245C1519.34 -28.268 1558 22.0864 1558 77.5Z" stroke="white" stroke-width="2"/>
<path d="M283.187 242.919C270.301 239.923 257.487 236.872 244.816 233.767C172.211 215.971 104.365 196.394 54.685 175.11C29.8403 164.465 9.59747 153.419 -4.41821 141.992C-18.4557 130.548 -26.0723 118.869 -26.0723 106.972C-26.0723 53.7274 1.16545 14.6951 44.3451 -13.9564C87.5635 -42.6336 146.698 -60.8643 210.269 -72.409C323.35 -92.9445 450.138 -92.2735 525.59 -91.8741C534.825 -91.8253 543.291 -91.7805 550.869 -91.7791C561.029 -83.5762 565.556 -73.426 565.368 -61.5104C565.177 -49.4235 560.13 -35.4457 550.969 -19.8062C532.649 11.4698 498.117 48.995 454.392 90.6562C412.736 130.346 362.811 173.722 310.76 218.945C308.196 221.172 305.627 223.404 303.054 225.64C296.457 231.373 289.83 237.134 283.187 242.919ZM141.147 373.596C186.322 330.47 235.437 287.161 283.73 245.099C344.388 259.184 406.589 272.049 462.88 283.654L467.629 284.633C534.223 298.36 592.119 310.294 628.833 320.377C1020.05 427.819 1282.24 522.02 1432.49 600.5C1507.64 639.757 1554.64 675.006 1575.82 705.9C1586.4 721.323 1590.48 735.569 1588.53 748.642C1586.58 761.714 1578.58 773.812 1564.59 784.881C1536.55 807.054 1484.78 824.822 1411.22 837.769C1337.71 850.707 1242.59 858.806 1127.96 861.748C898.711 867.633 591.559 852.891 223.512 815.048C120.107 801.939 50.4641 780.036 7.34103 751.565C-35.715 723.139 -52.3051 688.197 -49.7455 648.81C-47.1786 609.308 -25.3418 565.184 8.86472 518.537C43.0547 471.913 89.5129 422.888 141.147 373.596Z" stroke="white" stroke-width="2"/>
<path d="M1968.98 1691.39C1926.52 1712.13 1881.17 1733.1 1833.47 1754.17C1850.52 1639.45 1869.27 1527.7 1893.57 1441.61C1907.74 1391.42 1923.77 1350.04 1942.4 1321.89C1961.03 1293.73 1982.1 1279.05 2006.32 1281.66C2088.93 1290.55 2153.63 1302.68 2202.33 1317.57C2251.06 1332.47 2283.65 1350.1 2302.15 1369.93C2320.58 1389.7 2325.06 1411.67 2317.49 1435.56C2309.89 1459.54 2290.12 1485.5 2259.88 1512.98C2199.42 1567.93 2097.48 1628.61 1968.98 1691.39ZM1519.83 1884.12C1630.01 1842.24 1735.17 1799.67 1830.96 1757.46C1828.32 1775.3 1825.71 1793.21 1823.14 1811.09C1820.91 1826.52 1818.71 1841.94 1816.51 1857.28C1799.63 1975.35 1783.34 2089.21 1763.43 2173.94C1752.18 2221.82 1739.79 2260.3 1725.53 2284.96C1718.4 2297.29 1710.86 2306.07 1702.84 2310.88C1694.88 2315.66 1686.4 2316.55 1677.22 2313C1663.19 2307.59 1619.06 2285 1553.46 2249.45C1487.89 2213.92 1400.95 2165.47 1301.35 2108.4C1252.08 2080.16 1199.72 2049.82 1145.31 2017.88C1272.37 1975.04 1399.11 1929.99 1519.83 1884.12ZM620.569 1698.19C792.904 1809.54 975.911 1920.68 1140.52 2017.38C918.537 2092.13 695.779 2160.08 502.749 2213.85C350.395 2256.29 216.572 2289.89 116.272 2311.02C66.1198 2321.59 24.366 2329.03 -7.12483 2332.91C-22.8716 2334.85 -36.0327 2335.89 -46.3847 2335.99C-56.7762 2336.09 -64.2088 2335.23 -68.5852 2333.46C-78.0071 2329.64 -83.398 2321.29 -85.2597 2308.69C-87.127 2296.04 -85.4103 2279.25 -80.6965 2258.88C-71.2731 2218.16 -49.9672 2163.5 -22.0987 2099.85C-0.341751 2050.17 25.415 1995.01 52.6028 1936.78C95.013 1845.96 140.906 1747.68 180.531 1651.08C209.374 1580.76 234.919 1511.29 253.414 1446.15C360.477 1525.91 487.344 1612.12 620.569 1698.19ZM258.208 1420.93C256.327 1428.17 254.349 1435.46 252.28 1442.81C174.986 1385.15 108.146 1330.91 56.8601 1282.6C26.213 1253.72 1.14093 1226.99 -17.2828 1202.92C-35.719 1178.83 -47.4394 1157.49 -51.4803 1139.4C-55.5073 1121.37 -51.9038 1106.65 -39.7495 1095.55C-27.5125 1084.36 -6.47344 1076.72 24.6682 1073.3C111.533 1063.76 172.564 1075.32 213.29 1102.8C253.979 1130.24 274.583 1173.7 280.328 1228.37C286.076 1283.07 276.937 1348.91 258.208 1420.93Z" stroke="white" stroke-width="2"/>
<path d="M1178.3 1234.07C1221.99 1206.07 1265.95 1181.77 1309.07 1161.35C1307.2 1169.49 1305.57 1177.79 1304.14 1186.21C1294.95 1240.67 1294.36 1300.74 1293.78 1360.54C1293.6 1379.07 1293.42 1397.58 1292.99 1415.88C1291.14 1493.34 1284.72 1567.19 1254.5 1624.65C1224.33 1682.01 1170.39 1723.16 1073.16 1735.08C1005.63 1740.21 963.501 1721.17 941.836 1687.61C920.12 1653.98 918.741 1605.46 933.483 1551.18C962.957 1442.67 1056.67 1312 1178.3 1234.07ZM1311.96 1157.77C1326.12 1099 1353.18 1048.81 1405.41 1015.34C1466.1 976.457 1521.47 971.464 1569.37 984.129C1617.3 996.805 1657.85 1027.2 1688.75 1059.24C1719.65 1091.29 1740.85 1124.92 1750.11 1143.94C1752.43 1148.7 1753.98 1152.51 1754.75 1155.13C1755.14 1156.46 1755.31 1157.41 1755.32 1158C1755.32 1158.02 1755.32 1158.05 1755.32 1158.07C1755.12 1157.96 1754.86 1157.78 1754.55 1157.52C1753.8 1156.89 1752.82 1155.87 1751.6 1154.41C1749.17 1151.48 1745.87 1146.87 1741.67 1140.32C1724.66 1113.76 1696.01 1096.53 1658.93 1088.03C1621.85 1079.53 1576.27 1079.73 1525.24 1088.1C1460.88 1098.66 1387.77 1122.22 1311.96 1157.77Z" stroke="white" stroke-width="2"/>
<path d="M1474.11 3082.06C1506.64 3194.61 1537.97 3298.64 1569.96 3383.79C1450.21 3340.09 1296.22 3293.95 1130.16 3244.19C1117.47 3240.38 1104.7 3236.56 1091.87 3232.71C968.804 3195.8 840.142 3156.89 714.607 3115.52C825.622 2945.92 928.527 2774.01 1003.21 2618.26C1055.79 2508.63 1094.4 2406.97 1112.01 2319.72C1128.46 2238.21 1126.6 2169.14 1100.49 2117.92C1183.33 2223.48 1251.61 2377.29 1311.22 2546.51C1362.11 2690.99 1406.65 2846.62 1448.52 2992.93C1457.15 3023.1 1465.67 3052.87 1474.11 3082.06ZM412.639 3008.95C506.856 3046.69 608.106 3082.49 711.507 3116.6C666.689 3185.02 620.561 3253.06 574.443 3319.49C485.496 3447.63 396.595 3569.82 317.213 3677.35C330.202 3623.5 336.031 3569.23 336.022 3515.25C335.988 3325.11 263.532 3138.53 176.601 2986.08C148.596 2936.97 119.082 2891.39 89.9933 2850.36C178.297 2906.96 289.498 2959.63 412.639 3008.95ZM215.626 3817.61C245.628 3777.29 278.295 3733.4 312.833 3686.65C278.8 3818.71 200.992 3948.01 59.6611 4064.15C51.6723 4070.67 45.4696 4075.24 40.9293 4078C38.655 4079.38 36.8381 4080.29 35.4477 4080.76C33.9987 4081.25 33.2537 4081.18 32.9299 4081.02C32.7335 4080.92 32.4417 4080.63 32.4801 4079.58C32.5183 4078.53 32.8865 4077.03 33.645 4075.03C35.1545 4071.06 38.0849 4065.46 42.3635 4058.29C59.4706 4029.62 97.6392 3976.75 149.911 3906.08C169.891 3879.06 191.927 3849.45 215.626 3817.61ZM-71.3291 2662.82C-33.3128 2698.01 23.3051 2760.92 82.2559 2842.96C24.6224 2805.18 -22.6735 2765.68 -56.4296 2724.29C-78.0021 2697.84 -93.2409 2677.35 -103.06 2662.34C-107.971 2654.83 -111.514 2648.71 -113.815 2643.91C-116.137 2639.06 -117.126 2635.7 -117.088 2633.66C-117.07 2632.66 -116.81 2632.13 -116.51 2631.85C-116.212 2631.57 -115.688 2631.36 -114.751 2631.42C-112.826 2631.54 -109.805 2632.74 -105.712 2635.18C-97.5959 2640.03 -85.8399 2649.38 -71.3291 2662.82ZM1573.37 3387.17C1603.6 3398.26 1631.61 3409.2 1657.01 3419.99C1724.08 3448.5 1772.88 3475.97 1796.94 3502.73C1808.95 3516.09 1814.68 3529.15 1813.61 3541.99C1812.53 3554.83 1804.62 3567.72 1788.73 3580.68C1772.82 3593.65 1757.62 3600.86 1743.01 3602.97C1728.41 3605.09 1714.32 3602.12 1700.61 3594.58C1673.13 3579.46 1647.21 3545.99 1622.12 3498.38C1605.55 3466.96 1589.38 3429.46 1573.37 3387.17Z" stroke="white" stroke-width="2"/>
<path d="M1186.15 3802.11C1182.32 3807.32 1180.6 3815.41 1180.57 3825.78C1180.53 3836.19 1182.19 3849.06 1185.27 3863.98C1191.43 3893.82 1203.32 3932.01 1218.95 3975.37C1250.22 4062.09 1296.49 4169.65 1341.95 4272.77C1353.35 4298.62 1364.7 4324.2 1375.75 4349.1C1408.77 4423.53 1439.11 4491.91 1460.13 4543.67C1474.17 4578.22 1484.02 4605.28 1487.76 4621.76C1488.69 4625.88 1489.23 4629.3 1489.37 4631.99C1489.51 4634.73 1489.22 4636.55 1488.65 4637.6C1488.38 4638.1 1488.05 4638.4 1487.7 4638.56C1487.34 4638.72 1486.85 4638.8 1486.17 4638.69C1484.78 4638.47 1482.83 4637.52 1480.24 4635.61C1475.11 4631.84 1468.16 4624.64 1459.63 4614.37C1451.11 4604.12 1441.06 4590.87 1429.73 4575.03C1407.09 4543.35 1379.37 4501.36 1348.63 4452.45C1287.17 4354.64 1213.67 4229.16 1144.61 4103.13C1075.55 3977.11 1010.93 3850.55 967.226 3750.56C945.371 3700.57 928.758 3657.25 919.428 3623.97C914.762 3607.33 911.929 3593.24 911.162 3582.11C910.391 3570.92 911.724 3562.93 915.142 3558.29C918.614 3553.57 924.439 3549.91 932.478 3547.26C940.51 3544.62 950.667 3543.03 962.682 3542.4C986.713 3541.13 1018.01 3543.69 1054.26 3549.19C1126.75 3560.2 1218.85 3582.93 1311.78 3610.08C1404.71 3637.22 1498.43 3668.76 1574.14 3697.37C1612 3711.67 1645.35 3725.24 1671.85 3737.15C1698.37 3749.08 1717.95 3759.31 1728.33 3766.95C1730.91 3768.85 1732.83 3770.57 1734.14 3772.1C1735.46 3773.64 1736.12 3774.94 1736.29 3776.01C1736.46 3777.02 1736.2 3777.91 1735.5 3778.76C1734.76 3779.64 1733.52 3780.48 1731.68 3781.25C1728.02 3782.79 1722.36 3783.91 1714.9 3784.64C1707.47 3785.36 1698.33 3785.7 1687.77 3785.74C1653.6 3785.85 1604.71 3782.75 1550.6 3779.33C1537.74 3778.51 1524.58 3777.68 1511.26 3776.87C1441.92 3772.64 1368.1 3768.95 1307.96 3771.27C1277.89 3772.43 1251.2 3775.1 1230.18 3779.96C1209.23 3784.81 1193.67 3791.9 1186.15 3802.11Z" stroke="white" stroke-width="2"/>
<path d="M-52.6717 4485.44C54.6702 4480.47 220.703 4461.82 469.523 4419.34L469.535 4419.34L469.547 4419.34C652.178 4383.46 783.352 4357.72 872.314 4342.27C916.798 4334.55 950.706 4329.41 975.207 4326.87C987.458 4325.59 997.337 4324.97 1005 4325C1012.69 4325.03 1018.04 4325.71 1021.31 4326.98C1022.93 4327.61 1023.94 4328.35 1024.49 4329.12C1025.02 4329.86 1025.2 4330.73 1024.98 4331.82C1024.76 4332.95 1024.1 4334.31 1022.93 4335.9C1021.78 4337.49 1020.15 4339.26 1018.07 4341.22C1009.7 4349.08 994.248 4359.61 972.759 4372.86C948.959 4387.54 917.879 4405.48 881.066 4426.73C851.444 4443.83 818.11 4463.07 781.869 4484.48C630.951 4562.64 555.893 4634.73 525.45 4699.03C494.963 4763.43 509.296 4819.83 536.636 4866.3C557.036 4900.98 584.755 4930.23 606.483 4953.16C613.821 4960.91 620.476 4967.93 625.934 4974.2C631.357 4980.42 635.573 4985.87 638.145 4990.53C640.738 4995.23 641.53 4998.91 640.518 5001.71C639.52 5004.48 636.615 5006.8 630.779 5008.42C624.969 5010.02 616.501 5010.86 604.828 5010.86C558.261 5010.86 493.873 4989.74 423.394 4955.02C352.95 4920.33 276.544 4872.1 205.977 4818.02C135.408 4763.95 70.7114 4704.04 23.6674 4645.98C-23.3853 4587.91 -52.6383 4531.87 -52.6717 4485.44ZM-79.1908 4437.67C-64.8014 4446.85 -55.195 4461.49 -54.6924 4483.53C-71.3612 4484.28 -86.5951 4484.7 -100.487 4484.82C-152.097 4485.27 -185.099 4481.66 -204.3 4476.02C-213.916 4473.2 -219.937 4469.9 -223.131 4466.47C-224.714 4464.77 -225.583 4463.06 -225.88 4461.37C-226.178 4459.68 -225.919 4457.92 -225.119 4456.12C-223.502 4452.46 -219.7 4448.65 -214.098 4444.98C-208.521 4441.33 -201.269 4437.88 -192.915 4434.9C-176.208 4428.93 -155.207 4424.86 -134.643 4424.68C-114.063 4424.49 -94.0382 4428.2 -79.1908 4437.67Z" stroke="white" stroke-width="2"/>
</g>
<defs>
<clipPath id="clip0_608_30">
<rect width="1440" height="4841" fill="white"/>
</clipPath>
</defs>
</svg>
