<svg width="44" height="26" viewBox="0 0 44 26" fill="none" xmlns="http://www.w3.org/2000/svg">
<path d="M42.7654 1.21036C41.9833 0.43513 40.9254 0 39.8227 0C38.72 0 37.6621 0.43513 36.8801 1.21036L21.8957 15.9448L7.1199 1.21036C6.33786 0.43513 5.27997 0 4.17727 0C3.07458 0 2.01668 0.43513 1.23464 1.21036C0.843428 1.59729 0.532909 2.05765 0.321004 2.56486C0.109098 3.07207 0 3.6161 0 4.16557C0 4.71504 0.109098 5.25907 0.321004 5.76628C0.532909 6.27349 0.843428 6.73384 1.23464 7.12078L18.9322 24.7688C19.3202 25.1589 19.7818 25.4686 20.2904 25.6799C20.7991 25.8912 21.3446 26 21.8957 26C22.4467 26 22.9922 25.8912 23.5009 25.6799C24.0095 25.4686 24.4711 25.1589 24.8591 24.7688L42.7654 7.12078C43.1566 6.73384 43.4671 6.27349 43.679 5.76628C43.8909 5.25907 44 4.71504 44 4.16557C44 3.6161 43.8909 3.07207 43.679 2.56486C43.4671 2.05765 43.1566 1.59729 42.7654 1.21036Z" fill="#EB4365"/>
</svg>
